<svg xmlns="http://www.w3.org/2000/svg" viewBox="0 0 364.52 118.22"><defs><style>.cls-1{font-size:59.64px;}.cls-1,.cls-5{fill:#000;font-family:Gilroy-Light, Gilroy;font-weight:300;}.cls-2{letter-spacing:-0.02em;}.cls-3{letter-spacing:0em;}.cls-4{letter-spacing:-0.03em;}.cls-5{font-size:55.75px;letter-spacing:0.03em;}.cls-6{letter-spacing:0.1em;}.cls-7{fill:#fff;stroke:#231f20;stroke-miterlimit:10;stroke-width:2.5px;}.cls-8{fill:#010101;}</style></defs><title>Zasób 2</title><g id="Warstwa_2" data-name="Warstwa 2"><g id="Warstwa_1-2" data-name="Warstwa 1"><text class="cls-1" transform="translate(88.89 50.69)"><tspan class="cls-2">J</tspan><tspan class="cls-3" x="31.79" y="0">AK </tspan><tspan class="cls-4" x="119.33" y="0">K</tspan><tspan x="151.66" y="0">URA</tspan></text><text class="cls-5" transform="translate(86.41 104.84)">P<tspan class="cls-6" x="34.4" y="0">AZUREM</tspan></text><text class="cls-5" transform="translate(86.41 104.84)">P<tspan class="cls-6" x="34.4" y="0">AZUREM</tspan></text><path class="cls-7" d="M223.31,105.65h0l-.56-14.11c-.15-3.25-3.69-5.83-8-5.83s-7.85,2.58-8,5.83l-.57,14.11h0c0,.11,0,.21,0,.33,0,3,3.84,5.38,8.57,5.38s8.57-2.41,8.57-5.38C223.34,105.86,223.32,105.76,223.31,105.65Z"/><path class="cls-8" d="M22.48,104.81v-3.65H30V85.6l-1.13-.22A30.24,30.24,0,0,1,4.58,55.79v-12L0,40.78l4.58-3.06v-1.4A14.42,14.42,0,0,1,8.94,26l.89-.87-.78-1A12.27,12.27,0,0,1,6.65,20a8.75,8.75,0,0,1,6-10.78,8.59,8.59,0,0,1,2.4-.34,8.49,8.49,0,0,1,3.48.73l.57.25.56-.25a8.65,8.65,0,0,1,5.88-.39,8.73,8.73,0,0,1,6,10.78,11.88,11.88,0,0,1-2.4,4.06l-.78,1,.9.87a14.45,14.45,0,0,1,4.35,10.36V54h16l.18-1.18a11.25,11.25,0,0,1,1-3.58,8.73,8.73,0,0,1,11.87-3.38,8.66,8.66,0,0,1,3.89,4.44l.22.57.57.22a8.74,8.74,0,0,1,1.06,15.76,11.26,11.26,0,0,1-3.67,1.06L63.68,68l-.11,1.08A18.8,18.8,0,0,1,45.7,85.93L44.36,86v15.17h3.21v3.65Zm11.15-3.65h7.08V86H33.63ZM11.92,69.27A26.61,26.61,0,0,0,32.36,82.2l2.9.26L33.64,80a13.25,13.25,0,0,1-2.15-6h3.67a9.64,9.64,0,0,0,9.52,8.23h.24A15.11,15.11,0,0,0,60,67.21V64.66l1.69-.12c3.41-.25,4.58-.71,4.93-.9A5.08,5.08,0,0,0,65,54.17L63.67,54l-.21-1.3A5.08,5.08,0,0,0,54,51c-.18.32-.65,1.47-.89,4.93L53,57.61H33.16l-.33.94a14.51,14.51,0,0,1-19.19,8.72L9.8,65.7Zm7.19-43.83A10.89,10.89,0,0,0,8.23,36.32v17.5a10.88,10.88,0,1,0,21.75,0V36.32A10.89,10.89,0,0,0,19.11,25.44Zm0-3.65a14.54,14.54,0,0,1,5.21,1l.93.36.64-.77c1.66-2,2-2.84,2.16-3.3a5.09,5.09,0,0,0-7.88-5.51l-1.06.77L18,13.54A5.08,5.08,0,0,0,10.16,19c.13.47.5,1.31,2.16,3.31l.64.77.94-.36A14.46,14.46,0,0,1,19.11,21.79Z"/><path class="cls-8" d="M22.48,104.81v-3.65H30V85.6l-1.13-.22A30.24,30.24,0,0,1,4.58,55.79v-12L0,40.78l4.58-3.06v-1.4A14.42,14.42,0,0,1,8.94,26l.89-.87-.78-1A12.27,12.27,0,0,1,6.65,20a8.75,8.75,0,0,1,6-10.78,8.59,8.59,0,0,1,2.4-.34,8.49,8.49,0,0,1,3.48.73l.57.25.56-.25a8.65,8.65,0,0,1,5.88-.39,8.73,8.73,0,0,1,6,10.78,11.88,11.88,0,0,1-2.4,4.06l-.78,1,.9.87a14.45,14.45,0,0,1,4.35,10.36V54h16l.18-1.18a11.25,11.25,0,0,1,1-3.58,8.73,8.73,0,0,1,11.87-3.38,8.66,8.66,0,0,1,3.89,4.44l.22.57.57.22a8.74,8.74,0,0,1,1.06,15.76,11.26,11.26,0,0,1-3.67,1.06L63.68,68l-.11,1.08A18.8,18.8,0,0,1,45.7,85.93L44.36,86v15.17h3.21v3.65Zm11.15-3.65h7.08V86H33.63ZM11.92,69.27A26.61,26.61,0,0,0,32.36,82.2l2.9.26L33.64,80a13.25,13.25,0,0,1-2.15-6h3.67a9.64,9.64,0,0,0,9.52,8.23h.24A15.11,15.11,0,0,0,60,67.21V64.66l1.69-.12c3.41-.25,4.58-.71,4.93-.9A5.08,5.08,0,0,0,65,54.17L63.67,54l-.21-1.3A5.08,5.08,0,0,0,54,51c-.18.32-.65,1.47-.89,4.93L53,57.61H33.16l-.33.94a14.51,14.51,0,0,1-19.19,8.72L9.8,65.7Zm7.19-43.83A10.89,10.89,0,0,0,8.23,36.32v17.5a10.88,10.88,0,1,0,21.75,0V36.32A10.89,10.89,0,0,0,19.11,25.44Zm0-3.65a14.54,14.54,0,0,1,5.21,1l.93.36.64-.77c1.66-2,2-2.84,2.16-3.3a5.09,5.09,0,0,0-7.88-5.51l-1.06.77L18,13.54A5.08,5.08,0,0,0,10.16,19c.13.47.5,1.31,2.16,3.31l.64.77.94-.36A14.46,14.46,0,0,1,19.11,21.79Z"/><path class="cls-8" d="M22.48,104.81v-3.65H30V85.6l-1.13-.22A30.24,30.24,0,0,1,4.58,55.79v-12L0,40.78l4.58-3.06v-1.4A14.42,14.42,0,0,1,8.94,26l.89-.87-.78-1A12.27,12.27,0,0,1,6.65,20a8.75,8.75,0,0,1,6-10.78,8.59,8.59,0,0,1,2.4-.34,8.49,8.49,0,0,1,3.48.73l.57.25.56-.25a8.65,8.65,0,0,1,5.88-.39,8.73,8.73,0,0,1,6,10.78,11.88,11.88,0,0,1-2.4,4.06l-.78,1,.9.87a14.45,14.45,0,0,1,4.35,10.36V54h16l.18-1.18a11.25,11.25,0,0,1,1-3.58,8.73,8.73,0,0,1,11.87-3.38,8.66,8.66,0,0,1,3.89,4.44l.22.57.57.22a8.74,8.74,0,0,1,1.06,15.76,11.26,11.26,0,0,1-3.67,1.06L63.68,68l-.11,1.08A18.8,18.8,0,0,1,45.7,85.93L44.36,86v15.17h3.21v3.65Zm11.15-3.65h7.08V86H33.63ZM11.92,69.27A26.61,26.61,0,0,0,32.36,82.2l2.9.26L33.64,80a13.25,13.25,0,0,1-2.15-6h3.67a9.64,9.64,0,0,0,9.52,8.23h.24A15.11,15.11,0,0,0,60,67.21V64.66l1.69-.12c3.41-.25,4.58-.71,4.93-.9A5.08,5.08,0,0,0,65,54.17L63.67,54l-.21-1.3A5.08,5.08,0,0,0,54,51c-.18.32-.65,1.47-.89,4.93L53,57.61H33.16l-.33.94a14.51,14.51,0,0,1-19.19,8.72L9.8,65.7Zm7.19-43.83A10.89,10.89,0,0,0,8.23,36.32v17.5a10.88,10.88,0,1,0,21.75,0V36.32A10.89,10.89,0,0,0,19.11,25.44Zm0-3.65a14.54,14.54,0,0,1,5.21,1l.93.36.64-.77c1.66-2,2-2.84,2.16-3.3a5.09,5.09,0,0,0-7.88-5.51l-1.06.77L18,13.54A5.08,5.08,0,0,0,10.16,19c.13.47.5,1.31,2.16,3.31l.64.77.94-.36A14.46,14.46,0,0,1,19.11,21.79Z"/><path class="cls-8" d="M22.48,104.81v-3.65H30V85.6l-1.13-.22A30.24,30.24,0,0,1,4.58,55.79v-12L0,40.78l4.58-3.06v-1.4A14.42,14.42,0,0,1,8.94,26l.89-.87-.78-1A12.27,12.27,0,0,1,6.65,20a8.75,8.75,0,0,1,6-10.78,8.59,8.59,0,0,1,2.4-.34,8.49,8.49,0,0,1,3.48.73l.57.25.56-.25a8.65,8.65,0,0,1,5.88-.39,8.73,8.73,0,0,1,6,10.78,11.88,11.88,0,0,1-2.4,4.06l-.78,1,.9.87a14.45,14.45,0,0,1,4.35,10.36V54h16l.18-1.18a11.25,11.25,0,0,1,1-3.58,8.73,8.73,0,0,1,11.87-3.38,8.66,8.66,0,0,1,3.89,4.44l.22.57.57.22a8.74,8.74,0,0,1,1.06,15.76,11.26,11.26,0,0,1-3.67,1.06L63.68,68l-.11,1.08A18.8,18.8,0,0,1,45.7,85.93L44.36,86v15.17h3.21v3.65Zm11.15-3.65h7.08V86H33.63ZM11.92,69.27A26.61,26.61,0,0,0,32.36,82.2l2.9.26L33.64,80a13.25,13.25,0,0,1-2.15-6h3.67a9.64,9.64,0,0,0,9.52,8.23h.24A15.11,15.11,0,0,0,60,67.21V64.66l1.69-.12c3.41-.25,4.58-.71,4.93-.9A5.08,5.08,0,0,0,65,54.17L63.67,54l-.21-1.3A5.08,5.08,0,0,0,54,51c-.18.32-.65,1.47-.89,4.93L53,57.61H33.16l-.33.94a14.51,14.51,0,0,1-19.19,8.72L9.8,65.7Zm7.19-43.83A10.89,10.89,0,0,0,8.23,36.32v17.5a10.88,10.88,0,1,0,21.75,0V36.32A10.89,10.89,0,0,0,19.11,25.44Zm0-3.65a14.54,14.54,0,0,1,5.21,1l.93.36.64-.77c1.66-2,2-2.84,2.16-3.3a5.09,5.09,0,0,0-7.88-5.51l-1.06.77L18,13.54A5.08,5.08,0,0,0,10.16,19c.13.47.5,1.31,2.16,3.31l.64.77.94-.36A14.46,14.46,0,0,1,19.11,21.79Z"/><circle class="cls-8" cx="15.73" cy="44.51" r="1.8"/><circle class="cls-8" cx="15.73" cy="44.51" r="1.8"/><circle class="cls-8" cx="15.73" cy="44.51" r="1.8"/><circle class="cls-8" cx="15.73" cy="44.51" r="1.8"/></g></g></svg>
